<svg width="248" height="248" viewBox="0 0 248 248" fill="none" xmlns="http://www.w3.org/2000/svg">
<rect width="248" height="248" fill="white"/>
<rect x="16" y="128" width="32" height="80" fill="#36454F"/>
<path d="M40 190C40 182.268 46.268 176 54 176H93C101.284 176 108 182.716 108 191V208H40V190Z" fill="#36454F"/>
<path d="M16 40H84.6022C97.5244 40 108 50.4756 108 63.3979V63.3979C108 68.1487 104.149 72 99.3978 72H48C30.3269 72 16 57.6731 16 40V40Z" fill="#36454F"/>
<path d="M16 88V88C33.6731 88 48 102.327 48 120V120H16V88Z" fill="#FC7C16"/>
<rect width="32" height="80" transform="matrix(-1 0 0 1 232 128)" fill="#FC7C16"/>
<path d="M208 190C208 182.268 201.732 176 194 176H155C146.716 176 140 182.716 140 191V208H208V190Z" fill="#FC7C16"/>
<path d="M232 40H163.398C150.476 40 140 50.4756 140 63.3979V63.3979C140 68.1487 143.851 72 148.602 72H200C217.673 72 232 57.6731 232 40V40Z" fill="#FC7C16"/>
<path d="M232 88V88C214.327 88 200 102.327 200 120V120H232V88Z" fill="#36454F"/>
<path d="M108 120V120C125.673 120 140 134.327 140 152V208H108V120Z" fill="#FC7C16"/>
<path d="M140 128V128C122.327 128 108 113.673 108 96V40V40C125.673 40 140 54.3269 140 72V128Z" fill="#36454F"/>
</svg>
