<svg width="2449" height="2743" viewBox="0 0 2449 2743" fill="none" xmlns="http://www.w3.org/2000/svg">
<path d="M1760.14 2083.79C1756.83 2101.84 1755.39 2119.21 1732.07 2122.09C1720.19 2123.56 1718.98 2141.31 1718.66 2154.41C1718.08 2177.9 1714.65 2184.05 1695.73 2182.65C1680.45 2181.52 1675.93 2186.99 1674.68 2202.8C1673.02 2223.63 1667.66 2243.14 1675.27 2265.06C1682.11 2284.79 1673.08 2296.07 1651.63 2305.44C1647.08 2307.42 1641.02 2310.27 1644.3 2316.15C1659.23 2342.95 1647.6 2374.95 1660.78 2403.67C1669.53 2422.74 1665.56 2449.92 1648.96 2469.06C1640.93 2478.31 1637.07 2489.29 1644.13 2500.77C1651.61 2512.95 1644.72 2523.04 1638.9 2529.3C1620.42 2549.21 1625.91 2571.68 1629.84 2594.52C1630.37 2597.58 1631.36 2600.54 1632.14 2603.54C1635.35 2615.95 1609.64 2604.32 1620.6 2618.23C1626.4 2625.59 1627.62 2630.75 1628.53 2639.08C1632.7 2677.04 1613.25 2705.04 1596.02 2734.15L1566.48 2720.22C1566.72 2719.22 1566.93 2718.2 1567.12 2717.19C1568.68 2708.93 1581.72 2701.39 1578.16 2698.9C1570.79 2693.75 1564.49 2683.4 1554.19 2684.74C1540.97 2686.47 1537.84 2679.23 1537.28 2666.26C1536.79 2654.72 1534.94 2642.92 1526.7 2633.98C1519.98 2626.7 1519.84 2618.07 1520.2 2607.74C1521.13 2581.05 1509.69 2566.69 1485.26 2563.35C1460.21 2559.92 1451.21 2534.02 1433.57 2520.31C1427.87 2515.89 1435.26 2511.91 1439.06 2509.53C1456.46 2498.66 1472.64 2505.4 1487.91 2515.1C1495.29 2519.79 1501.17 2527.33 1507.94 2533.29C1512.05 2536.9 1514.69 2546.3 1521.08 2542.02C1526.74 2538.23 1528.27 2529.53 1528.09 2521.98C1527.87 2512.56 1522.03 2506.18 1515.41 2501.84C1503.86 2494.27 1505.56 2485.35 1507.68 2472.23C1513.22 2438.04 1516.46 2402.64 1485.47 2378.83C1477.27 2372.53 1476.07 2353.02 1462.75 2358.97C1450.21 2364.56 1458.51 2381.81 1455.26 2393.49C1452.86 2402.11 1455.55 2413.75 1445.06 2414.13C1433.76 2414.55 1421.1 2427.29 1411.03 2413.07C1407.9 2408.66 1405.99 2404.68 1400.67 2404.08C1397.99 2403.78 1393.93 2403.88 1393.94 2400.24C1393.94 2396.81 1397.95 2397.18 1400.53 2396.83C1402.44 2396.57 1404.38 2396.75 1406.29 2396.5C1411.64 2395.83 1417.45 2398.44 1422.27 2393.84C1416.85 2392.23 1410.92 2391.68 1406.09 2388.83C1383.05 2375.29 1361.29 2360.85 1354.35 2329.19C1348 2300.19 1342.64 2297.3 1316.18 2304.28C1306.54 2306.82 1298.33 2306.88 1294.92 2295.43C1291.62 2284.36 1300.91 2280.91 1307.34 2277.09C1312.29 2274.15 1318.12 2272.49 1323.73 2271.54C1331.95 2270.13 1332.69 2265.08 1330.33 2257.99C1328.5 2252.47 1322.29 2246.61 1329.65 2241.57C1334.72 2238.1 1338.08 2235.88 1331.72 2230.87C1327.9 2227.86 1323.21 2223.13 1319.49 2223.72C1311.42 2225 1317.95 2231.63 1317.58 2235.94C1316.49 2248.27 1315.16 2259.88 1302.04 2243.68C1296.09 2236.34 1288.3 2238.54 1280.54 2240.22C1240.86 2248.82 1211.56 2229.99 1198.11 2188.3C1194.74 2177.88 1195.32 2164.86 1182.05 2160.36C1173.6 2157.5 1174.32 2153.22 1182.78 2149.06C1193.01 2144.02 1186.46 2136.49 1182.9 2130.85C1178.05 2123.18 1171.97 2123.05 1166.15 2130.17C1163.57 2133.32 1161.18 2136.7 1158.42 2139.65C1139.6 2159.79 1113.25 2152.7 1103.42 2125.3C1100.71 2117.75 1105.37 2116.59 1109.24 2113.57C1119.78 2105.34 1132.22 2091.15 1123.59 2080.58C1112.45 2066.95 1099.23 2081.37 1089.86 2092.21C1082.97 2100.19 1074.67 2109.58 1065.71 2107.55C1045.23 2102.92 1032.77 2123.01 1014.63 2124.29C1006.45 2124.87 1005.23 2133.59 1003.41 2140.85C998.078 2162.15 987.057 2181.98 990.372 2205.52C990.941 2209.57 989.472 2215.52 985.541 2215.81C979.963 2216.24 981.571 2209.82 981.265 2206.07C979.088 2179.22 983.173 2151.74 990.142 2127.59C995.514 2108.97 1014.85 2093.22 1030.99 2081.12C1044.43 2071.07 1057.26 2060.06 1069.4 2048.14C1072.94 2044.65 1075.18 2038.14 1080.54 2042.35C1086.59 2047.1 1084.21 2054.04 1080.29 2058.96C1074.6 2066.11 1067.98 2072.35 1061.84 2079.06C1059.8 2081.29 1057.57 2084.47 1059.62 2087.16C1062.02 2090.32 1064.64 2086.94 1066.72 2085.29C1088.8 2067.81 1113.3 2061.26 1140.29 2063.66C1150.35 2064.55 1160.42 2062.73 1157.2 2046.2C1154.43 2031.97 1166.69 2032.34 1173 2027.4C1199.5 2006.67 1200.18 1998.96 1178.7 1972.33C1173.76 1966.21 1169.43 1959.5 1165.14 1952.81C1150.39 1929.8 1128.55 1923.74 1104.3 1935.56C1099.33 1937.98 1093.83 1943.91 1088.8 1937.36C1084.16 1931.32 1090.02 1926.23 1091.8 1920.48C1099.99 1893.93 1119.97 1883.93 1141.46 1880.28C1173.47 1874.84 1191.98 1848.16 1215.43 1829.08C1221.45 1824.19 1222.73 1816.88 1222.84 1809.21C1223 1799.63 1223.76 1789.96 1222.93 1780.48C1222.4 1774.57 1223.18 1768.95 1224.28 1763.41C1226.14 1753.96 1215.18 1748.36 1209.9 1756.06C1207.39 1759.74 1205.09 1763.73 1202.37 1767.13C1197.46 1773.25 1194.49 1766.95 1190.32 1765.17C1163.99 1753.92 1157.21 1725.86 1147.21 1701.76C1140.96 1686.68 1131.51 1672.41 1130.57 1654.77C1130.4 1651.5 1128.85 1648.24 1125.47 1648.24C1120.91 1648.24 1118.71 1652.24 1118.37 1656.48C1117.49 1667.28 1122.8 1676.8 1124.29 1687.13C1126.36 1701.51 1117.55 1708.45 1105.74 1702.04C1082.43 1689.38 1060.93 1673.11 1044.54 1649.8C1019.44 1614.11 1009.19 1610.71 971.602 1624.1C942.143 1634.59 937.699 1633.36 918.212 1604.91C910.774 1594.05 903.958 1584.75 889.881 1590.15C884.314 1592.29 876.704 1592.81 873.523 1587.7C860.795 1567.29 839.624 1560.62 822.405 1547.8C794.724 1527.2 796.054 1495.63 793.969 1465.26C793.313 1455.74 801.837 1448.57 808.5 1447.6C832.478 1444.13 854.304 1430.96 875.451 1421.83C907.991 1407.79 936.044 1397.25 970.354 1411.32C980.203 1415.36 996.47 1410.04 1006.04 1402.86C1022.07 1390.84 1038.21 1385.12 1057.07 1385.68C1063.08 1385.86 1070.56 1382.24 1069.68 1375.53C1067.28 1357.25 1082.49 1342.42 1079.37 1327.1C1075.88 1309.91 1078.93 1291.09 1070.06 1275.29C1064.1 1264.68 1066.5 1255.3 1072.23 1245.64C1086.63 1221.38 1110.18 1207.63 1127.27 1186.47C1129.06 1184.25 1132.58 1182.91 1135.23 1183.44C1171.62 1190.71 1213.47 1176.79 1242.02 1214.82C1255.9 1233.31 1277.17 1240.6 1291.39 1258.39C1297.37 1265.86 1305.46 1266.2 1309.45 1254.85C1312.12 1247.28 1315.96 1239.39 1323.34 1241.86C1335.64 1245.96 1348.6 1238.06 1359.86 1244.96C1369.96 1251.16 1368.13 1263.19 1367.62 1273.73C1366.11 1305.15 1368.28 1308.02 1397.21 1302.44C1409.47 1300.07 1415.18 1303.3 1422.76 1314.9C1431.55 1328.35 1441.77 1341.2 1450.49 1354.87C1464.53 1376.86 1469.98 1379.35 1491.29 1363.64C1497.96 1358.73 1504.48 1355.54 1511.99 1353.6C1532.92 1348.21 1541.92 1351.84 1551.2 1373.71C1557.67 1388.97 1566.14 1400.41 1580.29 1407.12C1604.88 1418.78 1618.82 1441.24 1628.06 1467.82C1631.86 1478.74 1634.5 1490.14 1638.14 1501.12C1644.63 1520.69 1647.63 1537.41 1630.67 1555.15C1619.51 1566.83 1621.23 1589.12 1612.18 1604.58C1609.1 1609.83 1608.57 1618 1604.52 1621.29C1588.7 1634.16 1580.51 1643.6 1607.88 1650.91C1614.16 1652.59 1616.25 1663.7 1609.81 1669.7C1600.01 1678.81 1602.3 1687.01 1607.69 1697.35C1616.73 1714.7 1612.15 1734.81 1615.44 1753.49C1618.92 1773.31 1626.64 1760.31 1633.29 1757.75L1633.69 1758.11C1630.8 1773.7 1627.52 1789.22 1625.2 1804.92C1623.98 1813.22 1623.8 1819.08 1635.54 1821.66C1661.03 1827.25 1665.84 1839.93 1663.2 1870.92C1662.26 1882.01 1663.99 1892.73 1659.5 1903.97C1656.92 1910.46 1658.05 1922.1 1668.46 1923.9C1682.98 1926.41 1681.11 1934.62 1677.9 1946.73C1674.94 1957.93 1669.88 1973.21 1690.29 1973.05C1695.64 1973.01 1696.61 1980.33 1697.63 1985.47C1702.07 2008.06 1711.44 2029.13 1710.46 2053.49C1709.56 2075.85 1722.97 2081.89 1742.22 2069.87C1746.94 2076.46 1753.46 2080.25 1760.14 2083.79ZM1362.62 1367.14C1358.86 1343.57 1346.02 1327.57 1327.51 1317.97C1318.47 1313.27 1310.35 1309.18 1305.9 1298.81C1304.42 1295.35 1305.27 1288.34 1301.19 1289.18C1298.02 1289.84 1298.68 1296.92 1299.88 1300.71C1305.86 1319.72 1311.46 1338.63 1313.06 1359.01C1313.94 1370.13 1312.49 1380.12 1308.48 1389.82C1304.54 1399.36 1296.4 1398.13 1288.67 1398.66C1282.66 1399.07 1277.66 1404.28 1277.34 1410.94C1276.35 1432.27 1260.02 1452.6 1274.25 1475.2C1276.45 1478.69 1276 1486.27 1274.12 1490.52C1263.69 1514.02 1270.93 1539.17 1267.93 1563.33C1266.46 1575.16 1276.92 1579.37 1284.68 1581.63C1294.17 1584.4 1294.36 1575.88 1294.87 1567.69C1295.32 1560.6 1300.67 1553.25 1299.68 1546.81C1296.25 1524.63 1304.57 1514.86 1323.8 1513.46C1327.68 1513.18 1331.39 1510.57 1330.72 1505.22C1330.27 1501.62 1326.71 1501.94 1324.34 1500.58C1310.69 1492.72 1308.35 1472.39 1319.96 1462.66C1323.48 1459.71 1332.83 1459.45 1330.88 1455.17C1320.88 1433.08 1339.39 1423.32 1345.82 1408.6C1350.04 1398.94 1351.59 1392.93 1338.93 1391.96C1332.19 1391.45 1323.68 1387.28 1325.92 1378.86C1329.13 1366.77 1336.7 1377.5 1342.42 1378.02C1350.99 1378.82 1362.39 1385.68 1362.62 1367.14ZM1467.55 1451.4C1466.86 1466.12 1467.56 1464.91 1476.07 1470.89C1496.06 1484.93 1515.82 1479.36 1535.72 1472.03C1541.32 1469.97 1551.67 1470.79 1548.01 1459.42C1545.22 1450.77 1536.13 1445.35 1529.24 1450.96C1505.96 1469.92 1494.72 1444.97 1480.64 1434.77C1471.83 1428.4 1462.9 1415.58 1479.53 1404.75C1481.97 1403.17 1483.94 1399.52 1481.64 1396.95C1479.99 1395.11 1476.25 1394.38 1473.73 1394.9C1457.21 1398.28 1460.73 1412.69 1460.7 1425.01C1460.68 1434.51 1471.73 1440.54 1467.55 1451.4ZM1351.32 1626.55C1367.13 1622.05 1365.76 1597.22 1383.9 1593.55C1388.03 1592.71 1377.54 1586.45 1374.5 1582C1369.68 1574.94 1368.24 1567.82 1376.17 1563.45C1382.65 1559.87 1386.54 1556.03 1380.62 1549.81C1373.86 1542.7 1366.88 1534.28 1355.96 1535.65C1349.02 1536.52 1345.06 1542.43 1346.33 1548.93C1350.34 1569.31 1347.77 1588.19 1340.93 1607.43C1338.07 1615.49 1341.5 1624.32 1351.32 1626.55ZM1201.26 1606.45C1199.96 1599.79 1195.59 1599.53 1190.8 1599.18C1176.84 1598.15 1168.72 1609.26 1159.22 1617.44C1154.91 1621.14 1147.2 1624.95 1149.56 1631.08C1152.97 1639.93 1160.81 1634.35 1166.73 1632.68C1177.98 1629.51 1186.21 1620.32 1195.82 1613.89C1198.02 1612.41 1199.3 1609.22 1201.26 1606.45ZM1448.01 11.8305C1462.76 38.4685 1476.87 65.4402 1485.95 95.2563C1487.11 99.0595 1489.24 104.346 1493.39 103.933C1498.2 103.456 1496.11 97.0308 1497.9 93.662C1505.19 79.9378 1511.84 65.7104 1520.06 52.7012C1530.22 36.6305 1538.63 37.3774 1547.73 53.9248C1549.7 57.4949 1550.72 61.6953 1552.23 65.5832C1553.97 70.0379 1552.77 79.1062 1558.71 77.3264C1563.92 75.7638 1558.99 68.0145 1559.25 63.0302C1559.46 58.8403 1559.24 54.338 1560.58 50.5613C1563.15 43.2781 1568.05 36.853 1575.53 38.156C1585.06 39.8139 1585.79 49.1788 1585.89 57.9557C1585.93 61.8648 1581.79 67.4689 1586.21 69.2063C1590.31 70.8219 1590.97 64.1266 1592.95 60.7525C1607.73 35.5447 1611.34 35.64 1624.65 61.0332C1628.02 67.4583 1632.16 73.4756 1634.85 80.2185C1642.5 99.3879 1647.14 117.403 1639.95 140.026C1632.17 164.545 1632.62 192.12 1627.81 217.985C1621.83 250.073 1621.69 280.541 1629.2 313.265C1636.42 344.697 1631.05 378.39 1621.04 409.917C1619.84 413.704 1616.81 418.562 1620.78 421.507C1624.38 424.171 1628.27 420.919 1630.44 417.354C1633.67 412.031 1636.38 407.163 1643.08 405.812C1650.66 404.281 1652.36 399.313 1646.07 392.835C1638.61 385.154 1638.74 375.911 1642.45 366.483C1646.24 356.832 1651.81 349.453 1662.33 356.133C1668.21 359.872 1673.59 363.967 1680.86 363.517C1691.05 362.881 1693.29 372.749 1690.03 378.374C1679.55 396.474 1685.36 419.166 1672.53 437.551C1661.98 452.668 1658.88 473.543 1669.86 493.486C1676.19 504.996 1677.59 517.142 1658.91 514.626C1651.65 513.651 1643.73 516.347 1640.88 522.301C1633.07 538.647 1627.05 552.361 1611.77 529.092C1608.56 524.213 1602.53 527.842 1600.97 533.912C1599.12 541.147 1597.83 551.524 1606.17 552.355C1615.93 553.33 1621.23 557.08 1626.86 565.518C1636.04 579.285 1641.65 576.97 1641.82 559.289C1641.95 544.924 1655.39 540.003 1660.75 529.192C1662.79 541.783 1676.43 546.73 1677.27 560.306C1677.73 567.695 1679.18 575.015 1680.27 582.352C1681.82 592.818 1686.53 599.985 1696.68 601.526C1701.83 602.31 1706.57 601.897 1707.78 595.165C1709.5 585.562 1714.66 577.118 1702.1 568.453C1684.38 556.217 1699.21 531.973 1691.1 515.028L1701.6 510.637C1704.14 513.291 1706.68 513.588 1709.22 510.627C1719.43 512.804 1728.63 504.599 1740.08 510.081C1759.28 519.276 1761.24 521.586 1750.63 540.125C1747.46 545.655 1743.89 552.732 1737.75 550.57C1729.53 547.673 1736.49 539.966 1736.16 534.457C1735.74 527.619 1735.19 521.035 1727.44 520.961C1719.82 520.887 1718.46 527.121 1718.5 534.177C1718.54 541.608 1717.88 549.061 1718.24 556.466C1718.9 570.127 1723.08 578.109 1735.86 567.128C1741.42 562.351 1747.56 556.217 1753.18 564.093C1759.03 572.293 1750.53 577.982 1746 581.954C1741.48 585.922 1741.49 599.837 1729.07 591.6C1725.3 589.105 1722.73 602.31 1721.23 609.053C1720.51 612.279 1722.29 615.452 1725.54 616.257C1732.14 617.888 1736.53 614.408 1739.52 608.169C1739.97 607.18 1740.5 606.233 1741.08 605.335C1767.24 565.926 1775.44 566.398 1797.93 608.714C1801.83 616.035 1804.71 623.968 1806.46 632.243C1815.79 675.561 1818.48 719.954 1823.13 763.918C1825.07 782.293 1819.39 801.759 1816.49 820.605C1815.39 827.767 1812.72 840.283 1810.2 840.458C1802.88 840.972 1803.14 829.7 1798.47 824.663C1795.81 821.802 1793.91 816.468 1789.44 819.313C1784.35 822.56 1784.11 829.748 1787.87 832.852C1810.24 851.343 1804.58 877.133 1806 902.5C1807.16 923.142 1809.61 943.991 1816.21 965.205C1823.47 988.564 1825.57 1016.43 1827.47 1042.67C1827.85 1047.93 1825.15 1054.7 1827.26 1058.37C1845.5 1090.12 1818.36 1116.67 1819.65 1146.31C1819.81 1149.84 1817.11 1152.57 1813.91 1151.43C1811.52 1150.58 1808.08 1147.84 1807.93 1145.68C1806.83 1130.87 1806.54 1115.99 1805.82 1101.14C1805.67 1098.08 1804.76 1095.06 1804.21 1092.02C1799.51 1093.82 1801.12 1098.44 1801.12 1101.79C1801.19 1133.51 1797.14 1165.18 1800.58 1197C1801.42 1204.73 1802.42 1215.93 1791.92 1217.45C1783.66 1218.65 1782.09 1208.92 1778.96 1202.6C1767.69 1179.87 1757.78 1154.51 1727.02 1171.93C1723.18 1174.11 1719.63 1168.46 1716.65 1168.55C1690.13 1169.41 1669.4 1143.74 1641.74 1149.22C1633.97 1150.76 1625.85 1145.35 1623.41 1136.6C1618.09 1117.47 1602.86 1102.59 1604.09 1080.75C1604.2 1078.68 1604.08 1076.12 1603.09 1074.52C1583.77 1043.25 1574.61 1001.6 1534.77 991.133C1519.64 987.155 1517.75 977.345 1521.61 962.381C1527.74 938.678 1544.02 926.956 1561.61 915.048C1579.83 902.712 1596.32 897.362 1613.43 916.256C1616.1 919.206 1619.44 919 1622.93 914.874C1630.89 905.45 1656.97 888.797 1665.64 886.297C1692.24 878.632 1713.97 849.298 1706.95 820.234C1699.2 788.119 1718.51 776.562 1733.79 760.433C1740 753.875 1744.34 759.622 1747.01 765.549C1750.84 774.03 1750.82 784.02 1756.11 792.235C1760.41 798.893 1764.07 799.343 1770.38 795.948C1777.05 792.367 1774.7 787.982 1772.95 783.13C1762.51 754.267 1749.72 728.651 1719.4 719.175C1709.24 716.002 1700.95 707.114 1689.3 704.201C1679.29 701.696 1681.57 686.504 1680.07 676.26C1679.52 672.526 1682.71 666.058 1678.04 665.73C1674.58 665.486 1676.23 673.246 1674.5 676.572C1662.57 699.593 1669.84 728.143 1654.81 751.121C1642.85 769.416 1636.58 790.974 1614.09 799.878C1603.11 804.222 1599.14 821.061 1594.33 833.741C1592.08 839.669 1590.34 848.265 1583.42 841.793C1578 836.724 1565.01 834.319 1571.46 820.759C1573.64 816.193 1577.78 812.792 1580.92 808.761C1582.74 806.42 1585.17 803.247 1583.12 800.647C1580.85 797.776 1578.03 800.572 1575.97 802.569C1573.09 805.377 1570.64 808.809 1567.57 811.299C1561.95 815.843 1556.7 827.751 1548.96 818.433C1543.12 811.404 1533.72 802.553 1538.77 790.651C1548.69 767.202 1564.68 746.195 1560.07 717.47C1559.63 714.747 1562.89 712.072 1566.02 712.024C1569.53 711.966 1570.96 714.731 1571.21 718.19C1571.59 723.482 1570.89 729.08 1572.22 734.028C1575.88 747.609 1591.04 755.951 1601.96 751.115C1614.65 745.495 1629.41 711.447 1627.74 695.329C1626.55 683.903 1622.49 691.361 1618.11 690.588C1605.75 688.411 1586.16 699.317 1585.1 670.184C1584.72 659.84 1577.03 668.029 1573.54 672.197C1567.2 679.772 1566.2 697.49 1556.97 695.413C1548.17 693.438 1560.96 676.165 1552 667.409C1548.27 663.765 1547.88 656.969 1551.09 652.615C1563.68 635.527 1550.61 625.209 1542.81 614.297C1519.58 581.838 1506.74 583.178 1490.35 620.86C1486.64 629.383 1481.06 637.238 1479.06 646.359C1473.83 670.121 1465.83 690.366 1441.28 696.335C1436.96 697.389 1429.13 703.3 1435.18 710.446C1438.51 714.376 1444.07 714.403 1448.1 711.368C1460.44 702.061 1468.63 703.82 1474.93 719.784C1477.75 726.909 1485.16 724.742 1490.3 721.76C1499.43 716.458 1509.07 718.492 1518.56 718.005C1542.88 716.765 1551.78 731.893 1540.22 756.147C1535.83 765.369 1530.67 775.979 1523.17 781.143C1510.57 789.809 1504.04 796.621 1513.43 813.391C1519.54 824.292 1510.17 832.046 1502.54 835.569C1485.86 843.276 1475.12 857.371 1463.61 871.715C1454.84 882.637 1446.97 899.921 1428.2 889.634C1422.14 886.308 1420.8 893.819 1418.3 897.934C1413.94 905.085 1409.11 911.775 1400.8 913.364C1396.98 914.095 1390.24 911.356 1390.6 910.837C1398.79 899.131 1390.99 885.153 1395.16 873.637C1397.98 865.872 1405.41 865.438 1412.66 868.346C1423.8 872.811 1423.51 866.344 1421.46 857.148C1420.09 851.036 1419.21 844.298 1420.05 838.159C1423.06 816.029 1416.27 817.273 1400.33 824C1386.19 829.97 1387.29 836.083 1392.97 847.217C1395.62 852.423 1395.03 857.906 1389.51 860.342C1384.27 862.657 1378.15 859.045 1377.5 854.622C1375.07 838.027 1357.01 824.477 1369.71 804.762C1373.53 798.83 1370.63 788.861 1366.37 787.844C1349.45 783.818 1345 768.034 1337.24 755.014C1335.77 752.556 1332.77 750.761 1330.14 749.685C1306.81 740.103 1286.84 726.411 1271.16 703.708C1263.19 692.172 1249.33 691.425 1237.87 703.263C1232.25 709.074 1224.5 710.716 1220.45 702.887C1216.45 695.133 1226.49 694.042 1229.6 689.386C1232.92 684.422 1237.73 680.227 1242.61 677.081C1257 667.806 1258.55 653.563 1254.16 638.393C1251.47 629.107 1249.44 620.14 1249.43 610.462C1249.43 591.415 1250.28 574.412 1223.36 578.829C1213.32 580.477 1202.04 564.575 1189.22 579.121C1179.89 589.714 1175.46 599.286 1182.99 612.65C1185.53 617.157 1188.51 621.374 1190.97 625.934C1194.57 632.577 1197.32 640.84 1193.78 647.175C1188.33 656.895 1181.49 647.376 1176.77 644.807C1161.55 636.544 1153.67 638.17 1153.83 659.321C1153.91 670.603 1147.1 676.901 1137.08 677.16C1127.7 677.404 1115.9 672.997 1112.27 686.287C1108.49 700.149 1107.21 717.745 1115.02 728.561C1131.82 751.846 1128.26 774.787 1121.18 799.82C1119.27 806.552 1118.38 813.544 1117.96 820.584C1115.54 861.19 1080.91 883.537 1072.73 920.817C1033 933.529 1039.14 978.961 1022.64 1008.21C1018.37 1015.79 1016.17 1025.53 1011.6 1033.72C1002.78 1049.54 991.462 1053.9 978.17 1041.9C964.877 1029.9 949.308 1026.8 933.566 1021.69C907.694 1013.29 877.809 1008.13 875.455 966.937C874.819 955.834 865.387 950.066 855.318 946.782C814.909 933.603 810.648 928.841 793.782 880.497C792.472 876.747 791.132 875.661 788.023 876.89C768.823 884.485 763.595 869.924 762.294 854.516C761.075 840.113 750.26 839.377 743.219 833.662C730.558 823.386 713.314 820.992 703.26 805.673C702.633 804.72 697.07 805.79 695.803 807.617C688.939 817.522 684.515 813.131 677.369 806.833C653.644 785.942 652.343 786.318 627.661 805.08C623.72 808.078 620.783 813.873 617.923 804.46C610.193 779.014 620.879 755.125 643.757 745.485C661.598 737.963 681.095 737.518 697.774 742.773C732.605 753.743 768.8 752.143 804.119 761.465C831.158 768.6 861.24 774.358 890.676 774.835C909.096 775.137 923.278 767.001 931.902 750.845C941.449 732.963 954.861 722.941 971.574 716.204C976.013 714.413 979.973 711.198 984.278 708.936C995.638 702.967 999.393 679.247 1019.51 692.86C1030.38 700.223 1046.21 696.987 1055.2 710.552C1060.99 719.286 1069.41 719.731 1078.36 720.235C1087.92 720.775 1091.86 718.222 1092.89 706.574C1094.73 685.508 1096.78 663.426 1121.64 658.235C1127.04 657.106 1127.63 649.945 1128.5 645.204C1132.99 620.733 1147.66 601.431 1148.59 573.146C1149.38 549.273 1160.31 517.099 1189.03 504.986C1201.71 499.636 1210.93 493.65 1206.88 471.515C1203.57 453.41 1224.13 441.661 1239.03 435.517C1262.25 425.935 1280.09 412.274 1296.08 390.149C1313.36 366.234 1341.75 359.666 1369.34 360.27C1388.2 360.683 1406.05 362.266 1416.31 339.808C1418.49 335.025 1422.01 333.065 1427.65 332.403C1450.04 329.77 1451.29 327.736 1453.18 301.411C1453.79 292.941 1460.28 293.275 1465.02 290.16C1494.11 271.012 1515.65 246.694 1519.61 206.062C1521.05 191.336 1514.19 182.295 1512.14 170.541C1509.97 158.067 1515.22 143.22 1494.28 151.419C1488.09 153.84 1478.72 143.103 1481.29 134.321C1485.98 118.266 1478.21 110.617 1469 102.386C1466.8 100.426 1463.42 97.926 1463.34 95.5582C1462.34 66.4678 1444.92 42.42 1443.02 13.695L1448.01 11.8305ZM1662.76 616.57C1661.96 611.352 1661.03 606.14 1657.12 602.522C1652.65 598.396 1647.96 599.948 1644.22 603.396C1632.11 614.562 1617.11 622.862 1613.51 642.614C1612.81 646.449 1602.27 641.618 1604.11 649.887C1605.01 653.923 1610.41 658.081 1614.54 659.543C1619.87 661.429 1623.58 656.063 1624.69 651.063C1628.51 633.927 1639.47 627.878 1653.8 626.04C1658.69 625.41 1663.24 623.757 1662.76 616.57Z" fill="#FFD2AF"/>
<path d="M950.848 2396.6C964.959 2396.32 977.041 2396.91 980.7 2380.13C981.145 2378.08 982.149 2374.35 982.58 2374.41C1011.76 2378.12 1007.06 2349.64 1014.96 2333.11C1016.71 2329.46 1019.69 2326.38 1022.49 2323.51C1027.49 2318.37 1033.65 2312.39 1040.08 2318.32C1047.63 2325.28 1045.12 2336.4 1038.33 2340.12C1024.12 2347.91 1028.34 2357.57 1029.41 2370.94C1031.78 2400.55 1017.46 2424.29 996.365 2440.43C988.171 2446.69 978.992 2464.29 973.559 2458.84C964.901 2450.15 978.132 2438.96 982.628 2429.09C986.244 2421.15 984.445 2414.22 978.954 2408.98C972.822 2403.13 966.747 2407.01 960.371 2410.33C929.309 2426.5 902.935 2450.28 875.881 2472.99C850.702 2494.13 836.797 2495.31 809.361 2478.36C804.296 2475.23 799.259 2472.02 793.983 2469.36C753.436 2448.9 748.437 2414.98 778.189 2380.2C792.266 2363.74 803.291 2343.91 814.656 2324.85C821.745 2312.97 818.344 2300.78 812.317 2288.79C802.511 2269.28 795.547 2248.84 793.505 2226C791.276 2201.03 789.999 2200.74 812.81 2197.23C832.426 2194.21 849.545 2181.22 871.165 2184.23C888.427 2186.63 896.999 2193.83 901.533 2211.51C905.279 2226.11 907.68 2239.81 925.598 2246.88C935.532 2250.81 945.501 2271.51 944.769 2288.74C944.343 2298.77 945.744 2304.39 953.455 2309.41C965.552 2317.29 964.203 2330.83 963.332 2343.66C962.768 2352.01 959.324 2359.01 950.776 2356.96C931.505 2352.32 925.071 2366.05 925.846 2381.74C926.741 2399.75 942.487 2394.89 950.848 2396.6ZM1769.24 1427.57C1766.95 1417.31 1776.84 1403.35 1762.63 1396.83C1748.04 1390.14 1744.23 1408.75 1734.25 1413.28C1728.69 1415.8 1725.55 1421.22 1721.96 1426.22C1715.49 1435.25 1714.49 1444.82 1723.77 1450.65C1738.07 1459.63 1738.32 1469.38 1729.1 1482.5C1726.72 1485.9 1727.23 1490.65 1729.92 1494.25C1731.92 1496.94 1735.6 1498.41 1737.41 1495.73C1756.44 1467.48 1753.22 1492.75 1756.2 1504.89C1757.41 1509.8 1760.41 1514.28 1763.02 1518.64C1764.49 1521.1 1766.76 1524.53 1768.79 1524.64C1771.85 1524.8 1772.28 1520.59 1772.45 1517.65C1773.33 1502.86 1779.85 1488.98 1777.68 1472.22C1780.55 1457.08 1772.65 1442.89 1769.24 1427.57ZM1718.6 488.629C1723.6 483.676 1724.79 476.038 1718.05 472.992C1691.78 461.117 1711.69 446.656 1717.92 437.641C1734.53 413.599 1735.43 403.248 1717.59 382.84C1709.85 373.994 1705 373.438 1702.61 386.68C1699.42 404.329 1694.84 420.919 1686.27 436.884C1675.89 456.222 1685.47 495.144 1701.6 510.632C1704.14 513.286 1706.68 513.582 1709.22 510.621C1708.52 501.283 1712.51 494.657 1718.6 488.629ZM1052.74 2148.05C1052.01 2146.91 1049.03 2146.7 1047.38 2147.22C1034.36 2151.32 1021.3 2155.66 1017.55 2172.87C1014.3 2187.75 1017.94 2198.64 1030.07 2208.1C1045.26 2219.95 1063.29 2214.56 1079.22 2221.34C1085.11 2223.85 1088.23 2215.49 1088.29 2204.51C1077.61 2187.43 1065.31 2167.64 1052.74 2148.05ZM956.363 1692.08C947.949 1678.82 941.368 1660.44 928.568 1653.63C913.821 1645.78 895.98 1642.96 878.717 1644.09C872.657 1644.49 867.817 1648.02 866.649 1655.3C865.234 1664.1 865.755 1674.56 873.906 1677.07C896.482 1684.05 917.194 1697.57 939.301 1701.01C946.811 1698.05 961.912 1700.82 956.363 1692.08ZM1633.64 1758.13C1655.62 1736.2 1660.26 1736.23 1678.9 1761.1C1689.9 1775.77 1699.05 1791.78 1703.11 1810.86C1704.85 1819 1707.65 1826.96 1710.78 1834.6C1711.61 1836.63 1715.48 1838.28 1717.86 1838.15C1722.37 1837.89 1724.71 1833.74 1723.71 1829.23C1714.64 1788.14 1705.52 1747.02 1671.66 1720.41C1658.12 1709.76 1643.4 1713.43 1636.08 1729.71C1632.07 1738.63 1633.35 1748.31 1633.25 1757.77L1633.64 1758.13ZM706.393 2623.35C723.091 2631.02 733.557 2644.98 743.965 2660.5C756.597 2679.33 765.724 2677.98 779.629 2658.55C782.565 2654.44 787.382 2650.33 785.191 2645.01C782.546 2638.6 777.003 2642.68 772.597 2643.53C759.864 2645.97 751.159 2644.08 743.769 2628.6C737.489 2615.45 724.119 2606.09 713.046 2596.22C704.322 2588.44 695.09 2592.64 694.459 2604.74C694.358 2613.04 699.481 2620.18 706.393 2623.35ZM1340.52 2396.38C1342.74 2392.11 1341.96 2387.63 1338.33 2385.39C1316.3 2371.85 1305.54 2349.25 1296.47 2324.65C1292.76 2314.59 1285.12 2307.58 1274.11 2308.1C1269.85 2308.3 1266.09 2310.92 1268.07 2315.85C1277.1 2338.35 1285.2 2361.55 1296.62 2382.5C1303.49 2395.12 1317.95 2399.38 1329.18 2402.3C1335.53 2402.64 1338.52 2400.24 1340.52 2396.38ZM1784.74 2053.52C1793.73 2038.28 1785.17 2028.88 1774.53 2023.18C1763.46 2017.24 1753.69 2021.57 1749.97 2035.95C1747.07 2047.17 1744.75 2058.56 1742.16 2069.88C1746.93 2076.46 1753.45 2080.25 1760.13 2083.79C1771.44 2076.8 1777.95 2065.04 1784.74 2053.52ZM1703.33 2366.06C1693.38 2359.78 1691.87 2373.19 1686.61 2377.93C1684.4 2379.93 1682.34 2382.17 1679.96 2383.87C1673.29 2388.64 1666.3 2394.38 1669.11 2403.9C1672.59 2415.67 1680.48 2401.12 1685.88 2405.71C1688.86 2408.24 1692.13 2410.37 1694.98 2413.06C1701.72 2419.41 1705.4 2415.21 1707.14 2408.22C1708.63 2402.21 1708.65 2395.76 1709.1 2391.57C1708.29 2381.19 1710.62 2370.66 1703.33 2366.06ZM1120.53 2246.46C1112.5 2256.76 1118.89 2266.12 1124.57 2271.33C1130.72 2276.97 1137.85 2270.75 1139.33 2262.5C1142 2247.58 1148.6 2246.68 1159.88 2251.86C1164.67 2254.06 1168.78 2247.77 1170 2242.75C1171.65 2236.03 1166.17 2233.63 1161.76 2231.95C1158.21 2230.61 1154.19 2230.76 1150.38 2230.25C1137.53 2229.2 1128.47 2236.28 1120.53 2246.46ZM1027.8 2221.38C1019.27 2222.16 1007.05 2223.5 1004.93 2233.77C1003.78 2239.31 1008.29 2253.48 1019.54 2252.55C1027.78 2251.87 1036.89 2249.72 1038.1 2236.95C1037.77 2229.35 1035.43 2220.69 1027.8 2221.38Z" fill="#FFD2AF"/>
<path d="M746.087 746.709L744.641 754.205L760.573 746.307C756.666 745.649 751.711 745.844 746.087 746.709ZM703.307 761.394C696.167 765.831 692.276 770.702 693.809 775.689C694.142 776.761 694.703 777.75 695.453 778.586L721.022 765.912L703.307 761.394ZM767.846 749.752L732.253 767.374L745.59 775.579C761.37 769.139 771.769 760.27 769.371 752.466C769.051 751.426 768.53 750.528 767.846 749.752ZM726.246 770.374L702.2 782.293C710.166 784.382 722.695 783.086 736.16 778.948C736.976 778.697 737.767 778.429 738.565 778.165L726.246 770.374Z" fill="#FF9848"/>
<path d="M708.842 690.051C694.351 694.504 686.105 710.011 690.548 724.468C692.256 730.026 695.614 734.66 699.905 738.001L726.087 762.304L726.189 762.377C727.135 763.051 728.007 763.543 728.938 763.817C729.868 764.091 730.922 764.102 731.836 763.718C733.661 762.951 734.405 761.267 735.044 759.448L735.079 759.353L744.081 721.424L744.085 721.4C744.282 720.464 744.359 719.549 744.393 718.671C744.706 715.161 744.336 711.624 743.303 708.255C738.86 693.798 723.332 685.598 708.842 690.051ZM713.498 705.204C719.784 703.272 726.195 706.661 728.119 712.92C730.043 719.181 726.642 725.585 720.356 727.517C714.069 729.449 707.655 726.061 705.731 719.801C703.808 713.542 707.212 707.135 713.498 705.204Z" fill="#FF9848"/>
<path d="M1833.73 1057.32L1826.41 1059.47L1840.74 1070C1839.53 1066.23 1837.08 1061.92 1833.73 1057.32ZM1801.05 1026.05C1793.84 1021.74 1787.72 1020.52 1784 1024.17C1783.2 1024.96 1782.57 1025.91 1782.18 1026.96L1805.17 1043.86L1801.05 1026.05ZM1841.02 1078.05L1809.02 1054.51L1807.85 1070.12C1820.82 1081.19 1833.47 1086.36 1839.3 1080.65C1840.08 1079.89 1840.64 1079.01 1841.02 1078.05ZM1803.6 1050.55L1781.98 1034.65C1783.78 1042.69 1790.68 1053.23 1800.53 1063.29C1801.13 1063.9 1801.73 1064.48 1802.33 1065.07L1803.6 1050.55Z" fill="#FF9848"/>
<path d="M1866.98 998.225C1856.38 987.394 1838.81 987.183 1828.01 997.765C1823.85 1001.83 1821.28 1006.94 1820.28 1012.29L1810.7 1046.7L1810.68 1046.83C1810.52 1047.98 1810.48 1048.98 1810.66 1049.93C1810.85 1050.88 1811.32 1051.82 1812.08 1052.46C1813.6 1053.73 1815.44 1053.62 1817.35 1053.35L1817.45 1053.34L1855.28 1043.93L1855.3 1043.92C1856.22 1043.67 1857.07 1043.32 1857.87 1042.95C1861.13 1041.61 1864.1 1039.66 1866.62 1037.2C1877.43 1026.61 1877.59 1009.06 1866.98 998.225ZM1855.66 1009.32C1860.26 1014.01 1860.19 1021.27 1855.51 1025.85C1850.83 1030.43 1843.58 1030.35 1838.98 1025.65C1834.38 1020.95 1834.44 1013.7 1839.12 1009.11C1843.8 1004.53 1851.06 1004.62 1855.66 1009.32Z" fill="#FF9848"/>
<path d="M831.516 1471.48L832.746 1479.02L844.973 1466.1C841.079 1466.84 836.495 1468.73 831.516 1471.48ZM796.433 1500.03C791.263 1506.66 789.293 1512.57 792.453 1516.72C793.136 1517.62 794.003 1518.35 794.995 1518.88L814.619 1498.16L796.433 1500.03ZM852.988 1466.83L825.664 1495.65L841.013 1498.75C853.601 1487.26 860.3 1475.34 855.356 1468.85C854.697 1467.98 853.898 1467.32 852.988 1466.83ZM821.062 1500.54L802.608 1520.03C810.805 1519.24 822.117 1513.7 833.326 1505.17C834.006 1504.65 834.655 1504.12 835.313 1503.6L821.062 1500.54Z" fill="#FF9848"/>
<path d="M777.003 1431.16C764.941 1440.34 762.553 1457.74 771.713 1469.78C775.235 1474.4 779.985 1477.59 785.166 1479.25L818.127 1493.02L818.248 1493.05C819.368 1493.36 820.357 1493.52 821.325 1493.46C822.293 1493.39 823.286 1493.04 824.011 1492.36C825.459 1491.01 825.576 1489.18 825.547 1487.25L825.548 1487.15L820.906 1448.44L820.902 1448.42C820.763 1447.47 820.52 1446.59 820.248 1445.75C819.331 1442.35 817.763 1439.16 815.63 1436.35C806.47 1424.32 789.066 1421.98 777.003 1431.16ZM786.604 1443.77C791.837 1439.79 799.024 1440.76 802.99 1445.97C806.957 1451.18 805.974 1458.37 800.741 1462.35C795.508 1466.33 788.319 1465.37 784.353 1460.16C780.387 1454.95 781.371 1447.76 786.604 1443.77Z" fill="#FF9848"/>
<path d="M1756.8 1425.41L1750.7 1430L1767.8 1434.84C1765.35 1431.73 1761.55 1428.55 1756.8 1425.41ZM1715.24 1407.56C1706.97 1406.05 1700.82 1407.05 1698.61 1411.77C1698.13 1412.79 1697.88 1413.9 1697.88 1415.02L1725.33 1422.81L1715.24 1407.56ZM1770.88 1442.28L1732.67 1431.43L1737.04 1446.47C1753.06 1452.3 1766.72 1452.71 1770.19 1445.32C1770.65 1444.33 1770.87 1443.31 1770.88 1442.28ZM1726.21 1429.62L1700.39 1422.3C1704.89 1429.2 1715.04 1436.65 1727.8 1442.63C1728.57 1442.99 1729.33 1443.33 1730.1 1443.67L1726.21 1429.62Z" fill="#FF9848"/>
<path d="M1767.26 1358.42C1753.53 1351.99 1737.01 1357.94 1730.59 1371.63C1728.12 1376.9 1727.5 1382.59 1728.43 1387.94L1731.51 1423.54L1731.54 1423.66C1731.78 1424.79 1732.1 1425.74 1732.61 1426.57C1733.11 1427.4 1733.89 1428.11 1734.82 1428.44C1736.69 1429.1 1738.37 1428.35 1740.06 1427.43L1740.15 1427.39L1772.3 1405.33L1772.32 1405.32C1773.09 1404.76 1773.76 1404.13 1774.38 1403.5C1776.97 1401.11 1779.07 1398.24 1780.56 1395.05C1786.98 1381.36 1780.98 1364.85 1767.26 1358.42ZM1760.53 1372.77C1766.49 1375.56 1768.96 1382.38 1766.18 1388.31C1763.4 1394.24 1756.58 1396.7 1750.63 1393.91C1744.67 1391.12 1742.19 1384.3 1744.97 1378.37C1747.75 1372.44 1754.58 1369.98 1760.53 1372.77Z" fill="#FF9848"/>
<path d="M1129.31 1896.25L1127.79 1903.73L1143.79 1895.98C1139.89 1895.29 1134.94 1895.44 1129.31 1896.25ZM1086.39 1910.55C1079.22 1914.92 1075.28 1919.76 1076.77 1924.76C1077.09 1925.83 1077.64 1926.83 1078.39 1927.67L1104.07 1915.23L1086.39 1910.55ZM1151.04 1899.49L1115.29 1916.79L1128.55 1925.11C1144.39 1918.82 1154.86 1910.04 1152.54 1902.22C1152.23 1901.17 1151.71 1900.27 1151.04 1899.49ZM1109.25 1919.74L1085.1 1931.44C1093.05 1933.6 1105.59 1932.42 1119.09 1928.4C1119.91 1928.16 1120.7 1927.89 1121.5 1927.64L1109.25 1919.74Z" fill="#FF9848"/>
<path d="M1092.57 1839.26C1078.04 1843.58 1069.66 1859.01 1073.97 1873.51C1075.63 1879.08 1078.94 1883.75 1083.2 1887.13L1109.17 1911.66L1109.27 1911.74C1110.21 1912.42 1111.07 1912.92 1112 1913.2C1112.93 1913.49 1113.98 1913.51 1114.9 1913.13C1116.73 1912.38 1117.49 1910.7 1118.15 1908.89L1118.18 1908.79L1127.53 1870.95L1127.53 1870.92C1127.74 1869.99 1127.82 1869.08 1127.86 1868.2C1128.21 1864.69 1127.87 1861.15 1126.87 1857.77C1122.55 1843.28 1107.1 1834.94 1092.57 1839.26ZM1097.09 1854.45C1103.39 1852.58 1109.77 1856.02 1111.64 1862.3C1113.51 1868.58 1110.05 1874.95 1103.75 1876.83C1097.44 1878.7 1091.06 1875.26 1089.19 1868.98C1087.33 1862.7 1090.79 1856.33 1097.09 1854.45Z" fill="#FF9848"/>
<path d="M1783.11 2028.72L1777.01 2033.31L1794.12 2038.15C1791.66 2035.04 1787.86 2031.86 1783.11 2028.72ZM1741.55 2010.87C1733.28 2009.37 1727.13 2010.36 1724.92 2015.09C1724.44 2016.1 1724.2 2017.21 1724.19 2018.34L1751.65 2026.12L1741.55 2010.87ZM1797.19 2045.59L1758.98 2034.74L1763.36 2049.78C1779.37 2055.61 1793.03 2056.02 1796.5 2048.63C1796.96 2047.64 1797.18 2046.63 1797.19 2045.59ZM1752.52 2032.93L1726.7 2025.61C1731.2 2032.51 1741.35 2039.97 1754.11 2045.94C1754.88 2046.31 1755.65 2046.64 1756.41 2046.98L1752.52 2032.93Z" fill="#FF9848"/>
<path d="M1793.57 1961.73C1779.84 1955.3 1763.32 1961.25 1756.9 1974.95C1754.43 1980.21 1753.81 1985.9 1754.74 1991.26L1757.82 2026.85L1757.85 2026.97C1758.1 2028.1 1758.41 2029.05 1758.92 2029.88C1759.42 2030.71 1760.2 2031.43 1761.13 2031.75C1763 2032.41 1764.68 2031.66 1766.38 2030.75L1766.47 2030.7L1798.61 2008.64L1798.63 2008.63C1799.4 2008.07 1800.07 2007.44 1800.69 2006.81C1803.28 2004.42 1805.38 2001.55 1806.88 1998.36C1813.29 1984.67 1807.3 1968.16 1793.57 1961.73ZM1786.84 1976.09C1792.8 1978.88 1795.27 1985.69 1792.49 1991.62C1789.71 1997.55 1782.89 2000.01 1776.94 1997.22C1770.98 1994.43 1768.51 1987.61 1771.29 1981.68C1774.06 1975.76 1780.89 1973.29 1786.84 1976.09Z" fill="#FF9848"/>
<path d="M793.132 2435.02L791.423 2442.46L807.623 2435.13C803.741 2434.33 798.782 2434.35 793.132 2435.02ZM749.86 2448.19C742.569 2452.37 738.509 2457.1 739.866 2462.14C740.161 2463.23 740.686 2464.23 741.406 2465.1L767.406 2453.33L749.86 2448.19ZM814.77 2438.83L778.578 2455.19L791.618 2463.86C807.615 2457.97 818.32 2449.48 816.198 2441.59C815.915 2440.54 815.426 2439.63 814.77 2438.83ZM772.469 2457.97L748.019 2469.04C755.906 2471.41 768.473 2470.55 782.076 2466.89C782.9 2466.67 783.699 2466.43 784.507 2466.19L772.469 2457.97Z" fill="#FF9848"/>
<path d="M757.903 2377.09C743.265 2381.03 734.478 2396.23 738.41 2410.84C739.921 2416.45 743.113 2421.2 747.284 2424.69L772.595 2449.9L772.694 2449.98C773.615 2450.68 774.47 2451.21 775.39 2451.51C776.311 2451.82 777.364 2451.87 778.29 2451.52C780.141 2450.82 780.944 2449.16 781.646 2447.36L781.685 2447.27L792.017 2409.68L792.022 2409.66C792.251 2408.73 792.36 2407.82 792.425 2406.94C792.862 2403.44 792.617 2399.9 791.703 2396.49C787.771 2381.89 772.541 2373.15 757.903 2377.09ZM762.024 2392.39C768.374 2390.68 774.662 2394.3 776.364 2400.62C778.066 2406.95 774.442 2413.22 768.092 2414.93C761.741 2416.64 755.45 2413.03 753.748 2406.71C752.046 2400.39 755.674 2394.1 762.024 2392.39Z" fill="#FF9848"/>
<path d="M1629.68 2654.65L1622.69 2657.72L1638.25 2666.33C1636.57 2662.75 1633.59 2658.78 1629.68 2654.65ZM1593.27 2627.82C1585.56 2624.47 1579.34 2624.04 1576.11 2628.14C1575.42 2629.02 1574.92 2630.04 1574.66 2631.14L1599.63 2644.96L1593.27 2627.82ZM1639.55 2674.28L1604.81 2655.03L1605.65 2670.66C1619.93 2679.98 1633.14 2683.49 1638.19 2677.07C1638.86 2676.22 1639.31 2675.28 1639.55 2674.28ZM1598.93 2651.79L1575.45 2638.79C1578.26 2646.53 1586.46 2656.1 1597.52 2664.82C1598.19 2665.35 1598.86 2665.85 1599.53 2666.36L1598.93 2651.79Z" fill="#FF9848"/>
<path d="M1655.09 2591.79C1643.19 2582.4 1625.74 2584.44 1616.38 2596.32C1612.78 2600.89 1610.88 2606.28 1610.57 2611.71L1605.48 2647.07L1605.48 2647.2C1605.46 2648.36 1605.55 2649.35 1605.85 2650.28C1606.16 2651.2 1606.75 2652.07 1607.58 2652.6C1609.25 2653.67 1611.06 2653.32 1612.92 2652.81L1613.02 2652.79L1649.34 2638.62L1649.36 2638.61C1650.24 2638.24 1651.04 2637.78 1651.78 2637.31C1654.84 2635.57 1657.54 2633.25 1659.72 2630.49C1669.09 2618.61 1667 2601.17 1655.09 2591.79ZM1645.28 2604.24C1650.44 2608.31 1651.3 2615.51 1647.25 2620.65C1643.19 2625.8 1635.99 2626.64 1630.83 2622.57C1625.66 2618.5 1624.8 2611.3 1628.86 2606.15C1632.91 2601.01 1640.12 2600.17 1645.28 2604.24Z" fill="#FF9848"/>
<path d="M1600.03 83.3585L1594.39 88.4951L1611.88 91.7108C1609.14 88.8445 1605.06 86.033 1600.03 83.3585ZM1556.98 69.5001C1548.6 68.7778 1542.57 70.3486 1540.81 75.2604C1540.44 76.319 1540.29 77.4461 1540.39 78.5649L1568.46 83.7269L1556.98 69.5001ZM1615.64 98.8249L1576.58 91.6237L1582.35 106.181C1598.84 110.473 1612.48 109.598 1615.23 101.912C1615.6 100.888 1615.72 99.8563 1615.64 98.8249ZM1569.97 90.429L1543.58 85.5747C1548.71 92.0178 1559.52 98.4832 1572.78 103.233C1573.58 103.52 1574.37 103.779 1575.17 104.046L1569.97 90.429Z" fill="#FF9848"/>
<path d="M1604.13 15.6781C1589.86 10.5672 1573.97 18.0475 1568.87 32.2865C1566.91 37.7604 1566.83 43.4827 1568.26 48.7276L1574.68 83.8705L1574.72 83.9899C1575.07 85.0955 1575.47 86.0126 1576.05 86.7888C1576.64 87.5659 1577.47 88.2057 1578.43 88.4453C1580.36 88.9238 1581.96 88.0206 1583.56 86.9462L1583.65 86.8916L1613.57 61.9063L1613.59 61.89C1614.31 61.2581 1614.91 60.5715 1615.47 59.8883C1617.82 57.2653 1619.64 54.2107 1620.83 50.8939C1625.93 36.6549 1618.41 20.789 1604.13 15.6781ZM1598.79 30.6018C1604.98 32.819 1608.09 39.3729 1605.88 45.5376C1603.67 51.7041 1597.11 54.7952 1590.92 52.5781C1584.73 50.3607 1581.62 43.8067 1583.83 37.6411C1586.04 31.4772 1592.6 28.3847 1598.79 30.6018Z" fill="#FF9848"/>
<path d="M742.5 765C900.487 289.43 1094.62 153.685 1569.5 99M723 765.174C1267.73 609.934 1500.26 689.928 1799 1053M843 1494C1099.85 1083.49 1319.94 999.651 1799.26 1054.6M812.618 1520.39C1166.19 1255.16 1376.41 1254.76 1752 1455M1109 1908C1256.02 1555.85 1405.66 1465.11 1752.5 1454.55M1109 1919.3C1429.43 1794.57 1577.8 1832.14 1789.04 2042.03M786 2440C1057.66 2045.87 1285.28 1972.19 1776.41 2045.81M786 2445.51C1223.29 2324.71 1401.89 2383.4 1617 2655" stroke="#FF9848" stroke-width="4" stroke-dasharray="13 13"/>
</svg>
